<?xml version="1.0" encoding="UTF-8" standalone="no"?>
<!DOCTYPE svg PUBLIC "-//W3C//DTD SVG 1.1//EN"
 "http://www.w3.org/Graphics/SVG/1.1/DTD/svg11.dtd">
<!-- Generated by graphviz version 2.42.3 (20191010.1750)
 -->
<!-- Title: %3 Pages: 1 -->
<svg width="464pt" height="476pt"
 viewBox="0.00 0.00 463.99 476.00" xmlns="http://www.w3.org/2000/svg" xmlns:xlink="http://www.w3.org/1999/xlink">
<g id="graph0" class="graph" transform="scale(1 1) rotate(0) translate(4 472)">
<title>%3</title>
<polygon fill="white" stroke="transparent" points="-4,4 -4,-472 459.99,-472 459.99,4 -4,4"/>
<!-- 0 -->
<g id="node1" class="node">
<title>0</title>
<ellipse fill="none" stroke="black" cx="73.44" cy="-162" rx="73.39" ry="18"/>
<text text-anchor="middle" x="73.44" y="-158.3" font-family="Times,serif" font-size="14.00">input cols=[label]</text>
</g>
<!-- 7 -->
<g id="node9" class="node">
<title>7</title>
<ellipse fill="none" stroke="black" cx="213.44" cy="-90" rx="27" ry="18"/>
<text text-anchor="middle" x="213.44" y="-86.3" font-family="Times,serif" font-size="14.00">+</text>
</g>
<!-- 0&#45;&gt;7 -->
<g id="edge7" class="edge">
<title>0&#45;&gt;7</title>
<path fill="none" stroke="black" d="M104.17,-145.64C127.65,-133.89 159.86,-117.79 183.22,-106.11"/>
<polygon fill="black" stroke="black" points="184.95,-109.16 192.33,-101.56 181.82,-102.9 184.95,-109.16"/>
</g>
<!-- 1 -->
<g id="node2" class="node">
<title>1</title>
<ellipse fill="none" stroke="black" cx="202.44" cy="-234" rx="104.78" ry="18"/>
<text text-anchor="middle" x="202.44" y="-230.3" font-family="Times,serif" font-size="14.00">input cols=[C1, C2, C3...]</text>
</g>
<!-- 3 -->
<g id="node5" class="node">
<title>3</title>
<ellipse fill="none" stroke="black" cx="213.44" cy="-162" rx="48.19" ry="18"/>
<text text-anchor="middle" x="213.44" y="-158.3" font-family="Times,serif" font-size="14.00">Categorify</text>
</g>
<!-- 1&#45;&gt;3 -->
<g id="edge2" class="edge">
<title>1&#45;&gt;3</title>
<path fill="none" stroke="black" d="M205.16,-215.7C206.37,-207.98 207.83,-198.71 209.18,-190.11"/>
<polygon fill="black" stroke="black" points="212.66,-190.53 210.76,-180.1 205.75,-189.44 212.66,-190.53"/>
</g>
<!-- 2 -->
<g id="node3" class="node">
<title>2</title>
<ellipse fill="none" stroke="black" cx="360.44" cy="-378" rx="51.99" ry="18"/>
<text text-anchor="middle" x="360.44" y="-374.3" font-family="Times,serif" font-size="14.00">FillMissing</text>
</g>
<!-- 4 -->
<g id="node6" class="node">
<title>4</title>
<ellipse fill="none" stroke="black" cx="360.44" cy="-306" rx="27" ry="18"/>
<text text-anchor="middle" x="360.44" y="-302.3" font-family="Times,serif" font-size="14.00">Clip</text>
</g>
<!-- 2&#45;&gt;4 -->
<g id="edge3" class="edge">
<title>2&#45;&gt;4</title>
<path fill="none" stroke="black" d="M360.44,-359.7C360.44,-351.98 360.44,-342.71 360.44,-334.11"/>
<polygon fill="black" stroke="black" points="363.94,-334.1 360.44,-324.1 356.94,-334.1 363.94,-334.1"/>
</g>
<!-- 5 -->
<g id="node4" class="node">
<title>5</title>
<ellipse fill="none" stroke="black" cx="360.44" cy="-450" rx="95.58" ry="18"/>
<text text-anchor="middle" x="360.44" y="-446.3" font-family="Times,serif" font-size="14.00">input cols=[I1, I2, I3...]</text>
</g>
<!-- 5&#45;&gt;2 -->
<g id="edge1" class="edge">
<title>5&#45;&gt;2</title>
<path fill="none" stroke="black" d="M360.44,-431.7C360.44,-423.98 360.44,-414.71 360.44,-406.11"/>
<polygon fill="black" stroke="black" points="363.94,-406.1 360.44,-396.1 356.94,-406.1 363.94,-406.1"/>
</g>
<!-- 3&#45;&gt;7 -->
<g id="edge5" class="edge">
<title>3&#45;&gt;7</title>
<path fill="none" stroke="black" d="M213.44,-143.7C213.44,-135.98 213.44,-126.71 213.44,-118.11"/>
<polygon fill="black" stroke="black" points="216.94,-118.1 213.44,-108.1 209.94,-118.1 216.94,-118.1"/>
</g>
<!-- 8 -->
<g id="node8" class="node">
<title>8</title>
<ellipse fill="none" stroke="black" cx="360.44" cy="-234" rx="36" ry="18"/>
<text text-anchor="middle" x="360.44" y="-230.3" font-family="Times,serif" font-size="14.00">LogOp</text>
</g>
<!-- 4&#45;&gt;8 -->
<g id="edge8" class="edge">
<title>4&#45;&gt;8</title>
<path fill="none" stroke="black" d="M360.44,-287.7C360.44,-279.98 360.44,-270.71 360.44,-262.11"/>
<polygon fill="black" stroke="black" points="363.94,-262.1 360.44,-252.1 356.94,-262.1 363.94,-262.1"/>
</g>
<!-- 6 -->
<g id="node7" class="node">
<title>6</title>
<ellipse fill="none" stroke="black" cx="349.44" cy="-162" rx="48.19" ry="18"/>
<text text-anchor="middle" x="349.44" y="-158.3" font-family="Times,serif" font-size="14.00">Normalize</text>
</g>
<!-- 6&#45;&gt;7 -->
<g id="edge6" class="edge">
<title>6&#45;&gt;7</title>
<path fill="none" stroke="black" d="M322.25,-147C299.49,-135.29 267.06,-118.6 243.53,-106.49"/>
<polygon fill="black" stroke="black" points="244.86,-103.23 234.36,-101.77 241.65,-109.46 244.86,-103.23"/>
</g>
<!-- 8&#45;&gt;6 -->
<g id="edge4" class="edge">
<title>8&#45;&gt;6</title>
<path fill="none" stroke="black" d="M357.72,-215.7C356.51,-207.98 355.06,-198.71 353.7,-190.11"/>
<polygon fill="black" stroke="black" points="357.14,-189.44 352.13,-180.1 350.23,-190.53 357.14,-189.44"/>
</g>
<!-- 9 -->
<g id="node10" class="node">
<title>9</title>
<ellipse fill="none" stroke="black" cx="213.44" cy="-18" rx="108.58" ry="18"/>
<text text-anchor="middle" x="213.44" y="-14.3" font-family="Times,serif" font-size="14.00">output cols=[C1, C2, C3...]</text>
</g>
<!-- 7&#45;&gt;9 -->
<g id="edge9" class="edge">
<title>7&#45;&gt;9</title>
<path fill="none" stroke="black" d="M213.44,-71.7C213.44,-63.98 213.44,-54.71 213.44,-46.11"/>
<polygon fill="black" stroke="black" points="216.94,-46.1 213.44,-36.1 209.94,-46.1 216.94,-46.1"/>
</g>
</g>
</svg>
