<?xml version="1.0" encoding="UTF-8" standalone="no"?>
<!DOCTYPE svg PUBLIC "-//W3C//DTD SVG 1.1//EN"
 "http://www.w3.org/Graphics/SVG/1.1/DTD/svg11.dtd">
<!-- Generated by graphviz version 2.42.3 (20191010.1750)
 -->
<!-- Title: %3 Pages: 1 -->
<svg width="469pt" height="332pt"
 viewBox="0.00 0.00 468.99 332.00" xmlns="http://www.w3.org/2000/svg" xmlns:xlink="http://www.w3.org/1999/xlink">
<g id="graph0" class="graph" transform="scale(1 1) rotate(0) translate(4 328)">
<title>%3</title>
<polygon fill="white" stroke="transparent" points="-4,4 -4,-328 464.99,-328 464.99,4 -4,4"/>
<!-- 0 -->
<g id="node1" class="node">
<title>0</title>
<ellipse fill="none" stroke="black" cx="73.44" cy="-162" rx="73.39" ry="18"/>
<text text-anchor="middle" x="73.44" y="-158.3" font-family="Times,serif" font-size="14.00">input cols=[label]</text>
</g>
<!-- 5 -->
<g id="node8" class="node">
<title>5</title>
<ellipse fill="none" stroke="black" cx="215.44" cy="-90" rx="27" ry="18"/>
<text text-anchor="middle" x="215.44" y="-86.3" font-family="Times,serif" font-size="14.00">+</text>
</g>
<!-- 0&#45;&gt;5 -->
<g id="edge5" class="edge">
<title>0&#45;&gt;5</title>
<path fill="none" stroke="black" d="M104.61,-145.64C128.57,-133.82 161.49,-117.6 185.22,-105.9"/>
<polygon fill="black" stroke="black" points="187.03,-108.91 194.46,-101.35 183.94,-102.63 187.03,-108.91"/>
</g>
<!-- 1 -->
<g id="node2" class="node">
<title>1</title>
<ellipse fill="none" stroke="black" cx="215.44" cy="-162" rx="50.89" ry="18"/>
<text text-anchor="middle" x="215.44" y="-158.3" font-family="Times,serif" font-size="14.00">LambdaOp</text>
</g>
<!-- 1&#45;&gt;5 -->
<g id="edge3" class="edge">
<title>1&#45;&gt;5</title>
<path fill="none" stroke="black" d="M215.44,-143.7C215.44,-135.98 215.44,-126.71 215.44,-118.11"/>
<polygon fill="black" stroke="black" points="218.94,-118.1 215.44,-108.1 211.94,-118.1 218.94,-118.1"/>
</g>
<!-- 6 -->
<g id="node3" class="node">
<title>6</title>
<ellipse fill="none" stroke="black" cx="197.44" cy="-234" rx="48.19" ry="18"/>
<text text-anchor="middle" x="197.44" y="-230.3" font-family="Times,serif" font-size="14.00">Categorify</text>
</g>
<!-- 6&#45;&gt;1 -->
<g id="edge1" class="edge">
<title>6&#45;&gt;1</title>
<path fill="none" stroke="black" d="M201.8,-216.05C203.8,-208.26 206.23,-198.82 208.48,-190.08"/>
<polygon fill="black" stroke="black" points="211.9,-190.83 211,-180.28 205.12,-189.09 211.9,-190.83"/>
</g>
<!-- 2 -->
<g id="node4" class="node">
<title>2</title>
<ellipse fill="none" stroke="black" cx="322.44" cy="-162" rx="27" ry="18"/>
<text text-anchor="middle" x="322.44" y="-158.3" font-family="Times,serif" font-size="14.00">Clip</text>
</g>
<!-- 2&#45;&gt;5 -->
<g id="edge4" class="edge">
<title>2&#45;&gt;5</title>
<path fill="none" stroke="black" d="M303.81,-148.81C286.95,-137.78 261.93,-121.41 242.81,-108.9"/>
<polygon fill="black" stroke="black" points="244.51,-105.83 234.23,-103.29 240.68,-111.69 244.51,-105.83"/>
</g>
<!-- 7 -->
<g id="node5" class="node">
<title>7</title>
<ellipse fill="none" stroke="black" cx="340.44" cy="-234" rx="51.99" ry="18"/>
<text text-anchor="middle" x="340.44" y="-230.3" font-family="Times,serif" font-size="14.00">FillMissing</text>
</g>
<!-- 7&#45;&gt;2 -->
<g id="edge2" class="edge">
<title>7&#45;&gt;2</title>
<path fill="none" stroke="black" d="M336.09,-216.05C334.05,-208.14 331.58,-198.54 329.31,-189.69"/>
<polygon fill="black" stroke="black" points="332.64,-188.6 326.76,-179.79 325.86,-190.35 332.64,-188.6"/>
</g>
<!-- 3 -->
<g id="node6" class="node">
<title>3</title>
<ellipse fill="none" stroke="black" cx="365.44" cy="-306" rx="95.58" ry="18"/>
<text text-anchor="middle" x="365.44" y="-302.3" font-family="Times,serif" font-size="14.00">input cols=[I1, I2, I3...]</text>
</g>
<!-- 3&#45;&gt;7 -->
<g id="edge7" class="edge">
<title>3&#45;&gt;7</title>
<path fill="none" stroke="black" d="M359.26,-287.7C356.45,-279.81 353.05,-270.3 349.92,-261.55"/>
<polygon fill="black" stroke="black" points="353.21,-260.34 346.55,-252.1 346.62,-262.7 353.21,-260.34"/>
</g>
<!-- 4 -->
<g id="node7" class="node">
<title>4</title>
<ellipse fill="none" stroke="black" cx="147.44" cy="-306" rx="104.78" ry="18"/>
<text text-anchor="middle" x="147.44" y="-302.3" font-family="Times,serif" font-size="14.00">input cols=[C1, C2, C3...]</text>
</g>
<!-- 4&#45;&gt;6 -->
<g id="edge6" class="edge">
<title>4&#45;&gt;6</title>
<path fill="none" stroke="black" d="M159.55,-288.05C165.57,-279.63 172.96,-269.28 179.61,-259.97"/>
<polygon fill="black" stroke="black" points="182.49,-261.96 185.45,-251.79 176.79,-257.89 182.49,-261.96"/>
</g>
<!-- 8 -->
<g id="node9" class="node">
<title>8</title>
<ellipse fill="none" stroke="black" cx="215.44" cy="-18" rx="108.58" ry="18"/>
<text text-anchor="middle" x="215.44" y="-14.3" font-family="Times,serif" font-size="14.00">output cols=[C1, C2, C3...]</text>
</g>
<!-- 5&#45;&gt;8 -->
<g id="edge8" class="edge">
<title>5&#45;&gt;8</title>
<path fill="none" stroke="black" d="M215.44,-71.7C215.44,-63.98 215.44,-54.71 215.44,-46.11"/>
<polygon fill="black" stroke="black" points="218.94,-46.1 215.44,-36.1 211.94,-46.1 218.94,-46.1"/>
</g>
</g>
</svg>
